<svg id="Layer_1" data-name="Layer 1" xmlns="http://www.w3.org/2000/svg" viewBox="0 0 1717.04 684.61"><defs><style>.cls-1{fill:#fff;}.cls-2{fill:#e5ff03;}</style></defs><polygon points="761.94 468.14 634.75 134.54 569.91 134.54 731.51 550.06 792.36 550.06 953.95 134.54 889.12 134.54 761.94 468.14"/><path d="M1240.81,376.78c42.75-19.44,64.42-56.21,64.42-109.29,0-40.74-12.75-73.36-37.84-96.93-25-23.9-58.48-36-99.46-36H976.15V550.06h59.56V396.81h120.73l92.73,153.25h70.66L1217.06,385.91A176.57,176.57,0,0,0,1240.81,376.78Zm-205.1-183.3h127c25.27,0,45.72,6.73,60.74,20s22.2,30.88,22.2,54c0,14.19-2.56,25.83-7.59,34.56-14,24.11-39.45,35.83-77.67,35.83H1035.71Z"/><path d="M1618.75,350.74A184.21,184.21,0,0,0,1574.51,329c-16-5.48-32.48-10.41-49-14.66s-32.58-8.35-48.43-12.38a287.79,287.79,0,0,1-41.16-13.49c-11.32-4.78-20.49-10.68-27.25-17.54-6.05-6.13-9-12.48-9-19.39a77.86,77.86,0,0,1,3.41-23.25c2.06-6.61,6.27-12.82,12.49-18.45h0c6.5-5.87,16-11,28.25-15.26,12.44-4.31,28.13-6.49,46.64-6.49s34.28,1.91,46.71,5.71c34,10,52.22,29.24,55.7,59l.84,7.11H1654l-.41-8.44c-1.66-34.36-15.68-62.89-41.58-84.71-28-24.54-67.86-37-118.32-37-50.05,0-88.28,11-113.62,32.7-25.71,22-38.75,50.87-38.75,85.76,0,25,7.29,45.23,21.66,60.18,13.64,14.21,30.92,25.79,51.36,34.42a393.41,393.41,0,0,0,64.5,20.64c22.36,5.18,43.43,10.81,62.61,16.74,18.58,5.74,34.19,13.08,46.38,21.79,10.81,7.72,16.06,18,16.06,31.46,0,42.09-32.64,62.55-99.76,62.55-32.76,0-59.26-5.91-78.73-17.55-21.74-13.13-33-31.56-34.38-56.31l-.43-7.6h-61.62l.79,8.77c3.66,40.66,19.06,72.54,45.78,94.78,29.54,24.44,72.61,36.84,128,36.84,49.06,0,88.2-10.47,116.34-31.12,28.91-21.21,43.57-52.22,43.57-92.17C1663.41,397.5,1648.35,370.27,1618.75,350.74Z"/><polygon points="548.73 200.78 548.73 483.81 303.63 625.32 58.53 483.81 58.53 200.78 303.63 59.28 548.73 200.78"/><path class="cls-1" d="M303.64,53.63,53.63,198V486.62L303.64,631l250-144.35V198Zm240.19,150V333.77l-112.75-65.1V138.51Zm0,141.47V475.31L431.08,410.22V280ZM539,483.79,426.17,548.9,313.42,483.8l112.77-65.11ZM308.53,197.92V67.76l112.75,65.09V263Zm0,141.53V209.23l112.75,65.1V404.56ZM416.4,554.57,303.64,619.66,190.88,554.55l112.74-65.09ZM190.89,413.05l112.75-65.11L416.39,413l-112.77,65.1ZM186,404.56V274.33l112.76-65.11V339.45ZM186,263V132.87L298.73,67.76V197.91ZM293.83,483.8,181.07,548.9,68.32,483.81l112.77-65.1Zm-230.4-150V203.61l112.75-65.1V268.67ZM176.18,280V410.23L63.43,475.33V345.08Z"/><circle class="cls-2" cx="242.35" cy="310.62" r="26.82" transform="translate(-148.66 262.35) rotate(-45)"/><circle class="cls-2" cx="439.26" cy="283.8" r="36.48" transform="translate(-83.6 273.32) rotate(-31.72)"/><circle class="cls-2" cx="181.08" cy="483.79" r="26.82"/><path class="cls-2" d="M124.21,206.74a31.67,31.67,0,1,0,31.67,31.67A31.71,31.71,0,0,0,124.21,206.74Z"/><rect class="cls-2" x="303.63" y="439.61" width="88.38" height="88.38"/><rect class="cls-2" x="334.86" y="143.92" width="60.09" height="60.09" transform="translate(-16.13 308.98) rotate(-45)"/></svg>